<svg xmlns="http://www.w3.org/2000/svg" width="1600" height="900" viewBox="0 0 1600 900">
<defs>
 <linearGradient id="bg" x2="1" y2="1"><stop stop-color="#101820"/><stop offset="1" stop-color="#080d12"/></linearGradient>
 <linearGradient id="screen" x2="1" y2="1"><stop stop-color="#183b43"/><stop offset=".55" stop-color="#101820"/><stop offset="1" stop-color="#3a2a18"/></linearGradient>
 <linearGradient id="gold" x2="1" y2="1"><stop stop-color="#f0d49a"/><stop offset="1" stop-color="#a77c3d"/></linearGradient>
 <linearGradient id="teal" x2="1" y2="1"><stop stop-color="#67b6c0"/><stop offset="1" stop-color="#24535d"/></linearGradient>
 <radialGradient id="glow"><stop stop-color="#3f8791" stop-opacity=".35"/><stop offset="1" stop-color="#3f8791" stop-opacity="0"/></radialGradient>
 <filter id="shadow" x="-30%" y="-30%" width="160%" height="170%"><feGaussianBlur stdDeviation="22"/></filter>
</defs>
<rect width="1600" height="900" fill="url(#bg)"/><ellipse cx="1110" cy="480" rx="570" ry="390" fill="url(#glow)"/>
<path d="M0 690 Q400 640 810 710 T1600 650 V900 H0Z" fill="#0a1015"/>
<ellipse cx="1120" cy="720" rx="480" ry="70" fill="#000" opacity=".5" filter="url(#shadow)"/>
<!-- laptop -->
<g transform="translate(730 220)">
 <rect x="0" y="0" width="520" height="330" rx="20" fill="#080c10" stroke="#7b8a8d" stroke-opacity=".55" stroke-width="3"/>
 <rect x="17" y="17" width="486" height="296" rx="9" fill="url(#screen)"/>
 <path d="M18 18H502V65H18Z" fill="#0a141a"/><circle cx="39" cy="41" r="4" fill="#c3a46b"/><circle cx="54" cy="41" r="4" fill="#3f8791"/><circle cx="69" cy="41" r="4" fill="#a7b0b5"/>
 <rect x="40" y="88" width="130" height="13" rx="6" fill="#f4f5f2" opacity=".8"/><rect x="40" y="111" width="95" height="7" rx="3" fill="#a7b0b5" opacity=".6"/>
 <g transform="translate(40 145)"><rect width="128" height="120" rx="10" fill="#18333b" stroke="#3f8791"/><circle cx="64" cy="42" r="20" fill="none" stroke="url(#teal)" stroke-width="4"/><path d="M44 77L60 59 72 70 91 50" fill="none" stroke="#67b6c0" stroke-width="3"/><rect x="15" y="92" width="80" height="5" rx="2" fill="#a7b0b5" opacity=".65"/></g>
 <g transform="translate(184 145)"><rect width="128" height="120" rx="10" fill="#30271c" stroke="#c3a46b"/><path d="M38 28h48v56H38z" fill="none" stroke="url(#gold)" stroke-width="3"/><path d="M48 43h28M48 54h28M48 65h20" stroke="#f4f5f2" stroke-opacity=".7" stroke-width="3"/><rect x="15" y="92" width="80" height="5" rx="2" fill="#c3a46b" opacity=".8"/></g>
 <g transform="translate(328 145)"><rect width="128" height="120" rx="10" fill="#14272d" stroke="#3f8791"/><path d="M48 36L29 60l19 23M80 36l19 24-19 23M70 31l-12 57" fill="none" stroke="#67b6c0" stroke-width="4"/><rect x="15" y="92" width="80" height="5" rx="2" fill="#a7b0b5" opacity=".65"/></g>
 <path d="M-42 332H562L515 365H8Z" fill="#56636a" stroke="#9ca7aa" stroke-opacity=".65" stroke-width="2"/><path d="M180 337H340L326 350H194Z" fill="#101820"/>
</g>
<!-- tablet -->
<g transform="translate(555 330) rotate(-7)"><rect width="170" height="245" rx="17" fill="#070b0f" stroke="#7c8b8d" stroke-width="3"/><rect x="11" y="14" width="148" height="216" rx="8" fill="#12252c"/><rect x="25" y="35" width="120" height="6" rx="3" fill="#c3a46b"/><path d="M27 70Q77 30 139 80T27 140Z" fill="#3f8791" opacity=".7"/><rect x="25" y="164" width="110" height="6" rx="3" fill="#f4f5f2" opacity=".7"/><rect x="25" y="179" width="86" height="5" rx="3" fill="#a7b0b5" opacity=".6"/><rect x="25" y="194" width="98" height="5" rx="3" fill="#a7b0b5" opacity=".4"/></g>
<!-- phone -->
<g transform="translate(690 495) rotate(-4)"><rect width="90" height="170" rx="15" fill="#06090c" stroke="#7c8b8d" stroke-width="3"/><rect x="8" y="12" width="74" height="146" rx="9" fill="#14272d"/><rect x="18" y="28" width="54" height="38" rx="5" fill="#3f8791"/><rect x="18" y="77" width="54" height="5" rx="2" fill="#f4f5f2" opacity=".8"/><rect x="18" y="89" width="43" height="4" rx="2" fill="#a7b0b5"/><rect x="18" y="106" width="54" height="31" rx="5" fill="#30271c" stroke="#c3a46b"/></g>
<!-- digital product covers -->
<g transform="translate(1275 390)"><path d="M0 0L190 25V305L0 280Z" fill="#10242b" stroke="#c3a46b" stroke-width="3"/><path d="M18 23L172 44V125L18 104Z" fill="#173740"/><path d="M28 89Q77 13 132 75T164 62" fill="none" stroke="#67b6c0" stroke-width="4"/><rect x="22" y="150" width="136" height="8" rx="4" fill="#f4f5f2" opacity=".8"/><rect x="22" y="170" width="111" height="5" rx="2" fill="#c3a46b"/><rect x="22" y="186" width="128" height="5" rx="2" fill="#a7b0b5" opacity=".6"/></g>
<g transform="translate(1450 460)"><path d="M0 0L130 18V250L0 232Z" fill="#13262c" stroke="#3f8791" stroke-width="3"/><path d="M18 25L112 39V103L18 89Z" fill="#1c3c43"/><path d="M25 77L56 45 86 81 109 54" fill="none" stroke="#c3a46b" stroke-width="3"/><rect x="18" y="126" width="90" height="6" rx="3" fill="#f4f5f2" opacity=".8"/><rect x="18" y="142" width="75" height="5" rx="2" fill="#a7b0b5" opacity=".7"/></g>
<!-- prompt cards -->
<g transform="translate(970 650) rotate(-8)"><rect width="180" height="108" rx="6" fill="#11252b" stroke="#3f8791" stroke-width="2"/><circle cx="30" cy="28" r="10" fill="none" stroke="#67b6c0" stroke-width="3"/><rect x="52" y="23" width="95" height="5" rx="2" fill="#f4f5f2" opacity=".8"/><rect x="20" y="54" width="135" height="5" rx="2" fill="#a7b0b5" opacity=".65"/><rect x="20" y="68" width="110" height="5" rx="2" fill="#a7b0b5" opacity=".4"/></g>
<g transform="translate(1165 675) rotate(4)"><rect width="185" height="100" rx="6" fill="#30271c" stroke="#c3a46b" stroke-width="2"/><path d="M20 20h35v35H20z" fill="none" stroke="#c3a46b" stroke-width="3"/><rect x="68" y="25" width="96" height="5" rx="2" fill="#f4f5f2" opacity=".8"/><rect x="68" y="39" width="82" height="5" rx="2" fill="#a7b0b5" opacity=".55"/><rect x="20" y="72" width="144" height="5" rx="2" fill="#a7b0b5" opacity=".5"/></g>
<text x="90" y="760" fill="#f4f5f2" font-family="Inter,Arial,sans-serif" font-size="22" letter-spacing="7" opacity=".72">DIGITAL TOOLS • PROMPT PACKS • RESOURCES</text>
</svg>